<svg xmlns="http://www.w3.org/2000/svg" width="200" height="200" version="1" viewBox="0 0 2000 2000"><path fill="#595c65" d="M1570 1233c0-4 4-13 8-19 8-12 188-144 197-144 20 0-7 27-87 87-108 81-118 87-118 76zm-230-98c0-13 21-15 125-15s125 2 125 15-21 15-125 15-125-2-125-15z"/><path fill="#3d88ba" d="M733 1431c1-16 4-28 7-26 8 5 230-502 230-524 0-11 4-21 9-23s43-91 86-198c106-272 127-320 120-285-2 17-20 116-39 220-19 105-42 242-52 305s-22 118-26 121c-8 5-56 126-129 323-46 123-38 116-129 116h-79l2-29zm267 14c0-9 4-14 8-11 5 3 20-23 34-57 27-65 56-132 155-357 33-75 58-141 55-149-2-7 0-16 5-20 5-3 52-117 104-253s96-248 99-248 22 59 43 131l37 131-71 161c-39 89-107 243-149 342-43 99-94 216-114 260l-35 80-85 3c-73 2-86 0-86-13zm574-251c4-10 10-31 13-46l6-28h-262l26-62c15-35 31-68 36-75 6-8 49-13 130-15l121-3 9-37c5-21 12-38 17-38 4 0 31 37 59 82 43 67 50 84 39 93-208 158-204 156-194 129zm-1229-91c3-10 13-44 22-75l16-58h42c50 0 56-6 79-85 10-33 26-87 36-120 54-171 71-247 59-261-9-11-47-14-180-14H251l47-75 47-75h205c169 0 209 3 227 15 43 30 39 64-41 330-41 138-80 271-86 297-16 60-61 115-108 128-20 5-75 10-121 10-75 0-82-2-76-17z"/><g fill="#40528f"><path d="M1806 1549c-3-8-24-81-46-164-23-82-48-169-55-191l-13-42 43-31c31-23 43-38 42-54-2-25-94-177-108-177-4 0-11 16-15 36-4 25-9 32-14 23-5-8-45-142-89-299-45-157-84-293-87-302-5-16 4-18 95-18 96 0 101 1 101 21 0 12 13 69 30 128 33 122 88 322 155 566 25 94 57 212 72 262l25 93-51 69c-62 83-79 99-85 80zM60 1448c0-14 48-181 233-808l34-115 93-3c85-3 92-1 87 15-3 10-22 74-42 143s-48 166-62 215c-13 50-46 162-73 250s-59 195-71 238l-22 77h-89c-64 0-88-3-88-12zm950-24c0-53 174-1066 186-1086 7-10 131-11 137 0 3 4-1 43-9 87-19 110-65 403-69 440-2 17-29 89-60 160-92 210-125 286-152 350-29 69-33 75-33 49zm-275-35c9-72 42-321 90-684 25-186 45-345 45-352 0-10 24-13 95-13 52 0 95 2 95 5s-6 44-14 92c-8 49-22 135-31 193-37 246-43 263-162 535-63 143-117 262-119 264-2 3-2-15 1-40z"/><path d="M1730 1096c0-2 8-10 18-17 15-13 16-12 3 4s-21 21-21 13z"/></g><path fill="#feffff" d="M0 1000V0h2000v2000H0V1000zm1891 469l51-69-25-93c-15-50-47-168-72-262-67-244-122-444-155-566-17-59-30-116-30-128 0-20-5-21-98-21h-98l-72 188c-40 103-86 221-102 262l-30 75 6-57c3-32 21-147 39-255 18-109 31-201 28-205-7-13-130-9-140 5-5 6-29 62-52 122-105 271-155 394-158 391-2-2 5-59 16-127 12-68 27-169 36-224 8-55 17-115 21-132l7-33h-97c-74 0-96 3-96 14 0 13-95 737-125 951-23 168-29 155 65 155h80l15-32c8-18 42-105 75-193s67-173 76-190l15-30-6 40c-10 70-54 349-61 378l-6 28 87-3 86-3 35-80c20-44 69-156 109-250 158-366 224-509 229-495 11 32 96 328 96 334 0 3-53 6-119 6-83 0-121 4-128 13-19 25-59 133-55 150 3 15 18 17 128 17 79 0 123 4 119 10-6 10-17 80-12 80 2 0 28-18 57-40s57-40 61-40 17 37 29 83c20 75 75 273 86 306 6 19 23 3 85-80zM286 1293l49-168 105-6c58-3 115-11 127-17 34-18 70-72 83-122 7-25 45-157 86-295 80-266 84-300 41-330-18-12-58-15-227-15H345l-47 75-47 75h168c133 0 171 3 180 14 12 14-5 90-59 261-10 33-26 87-36 120-23 79-29 85-81 85-39 0-44-2-38-17 3-10 15-47 25-83s35-121 55-190 39-133 42-143c5-16-2-18-87-15l-93 3-34 115c-185 627-233 794-233 808 0 9 24 12 88 12h88l50-167z"/></svg>